<?xml version="1.0" encoding="utf-8"?>
<svg width="118px" height="39px" viewBox="0 0 118 39" version="1.1" xmlns:xlink="http://www.w3.org/1999/xlink" xmlns="http://www.w3.org/2000/svg">
  <defs>
    <linearGradient x1="0.0050568795" y1="0.0050568795" x2="1" y2="1" id="gradient_1">
      <stop offset="0.0008445946" stop-color="#F45757" />
      <stop offset="1" stop-color="#FF9292" />
    </linearGradient>
    <path d="M0.129666 7.15686C0.97017 2.35309 5.51244 -0.798024 10.1915 0.17717C14.7833 1.13424 17.6741 5.82869 16.7934 10.5326L16.7934 10.5326L16.4649 12.2868C16.1209 14.1224 17.2986 15.8953 19.0945 16.2466C22.765 16.9643 25.3262 20.5452 24.6408 24.2993C23.9543 28.0571 20.4022 30.521 16.7317 29.7857C13.0649 29.051 10.7539 25.2963 11.4562 21.5451C11.7996 19.7095 10.6225 17.9369 8.82632 17.5857L8.82632 17.5857L7.10956 17.25C2.50678 16.3499 -0.695074 11.8714 0.129666 7.15686Z" transform="translate(0.25793356 0.17723662)" id="path_1" />
    <path d="M1.38236 1.41252C-0.460785 3.29588 -0.460785 6.34976 1.38236 8.23313C3.22493 10.1165 6.21314 10.1165 8.05628 8.23313C9.89886 6.34976 9.89886 3.29588 8.05628 1.41252C6.21314 -0.47084 3.22493 -0.47084 1.38236 1.41252" transform="translate(0.25924444 0.022653846)" id="path_2" />
    <clipPath id="mask_1">
      <use xlink:href="#path_1" />
    </clipPath>
    <clipPath id="mask_2">
      <use xlink:href="#path_2" />
    </clipPath>
  </defs>
  <g id="LogoLogo-Dark">
    <g id="Logo" transform="translate(0 4)">
      <g id="Icon">
        <g id="Group-2">
          <g id="Group-12" transform="translate(1.6888889 0)">
            <path d="M0.129666 7.15686C0.97017 2.35309 5.51244 -0.798024 10.1915 0.17717C14.7833 1.13424 17.6741 5.82869 16.7934 10.5326L16.7934 10.5326L16.4649 12.2868C16.1209 14.1224 17.2986 15.8953 19.0945 16.2466C22.765 16.9643 25.3262 20.5452 24.6408 24.2993C23.9543 28.0571 20.4022 30.521 16.7317 29.7857C13.0649 29.051 10.7539 25.2963 11.4562 21.5451C11.7996 19.7095 10.6225 17.9369 8.82632 17.5857L8.82632 17.5857L7.10956 17.25C2.50678 16.3499 -0.695074 11.8714 0.129666 7.15686Z" transform="translate(0.25793356 0.17723662)" id="Clip-11" fill="none" fill-rule="evenodd" stroke="none" />
            <g clip-path="url(#mask_1)">
              <path d="M0 31L32.6667 31L32.6667 0L0 0L0 31Z" transform="translate(-1.6220741 0.17720342)" id="Fill-10" fill="url(#gradient_1)" fill-rule="evenodd" stroke="none" />
            </g>
          </g>
          <g id="Group-15" transform="translate(0 20.42442)">
            <path d="M1.38236 1.41252C-0.460785 3.29588 -0.460785 6.34976 1.38236 8.23313C3.22493 10.1165 6.21314 10.1165 8.05628 8.23313C9.89886 6.34976 9.89886 3.29588 8.05628 1.41252C6.21314 -0.47084 3.22493 -0.47084 1.38236 1.41252" transform="translate(0.25924444 0.022653846)" id="Clip-14" fill="none" fill-rule="evenodd" stroke="none" />
            <g clip-path="url(#mask_2)">
              <path d="M1.38236 1.41252C-0.460785 3.29588 -0.460785 6.34976 1.38236 8.23313C3.22493 10.1165 6.21314 10.1165 8.05628 8.23313C9.89886 6.34976 9.89886 3.29588 8.05628 1.41252C6.21314 -0.47084 3.22493 -0.47084 1.38236 1.41252" transform="translate(0.25924444 0.022653846)" id="Fill-13" fill="url(#gradient_1)" fill-rule="evenodd" stroke="none" />
            </g>
          </g>
        </g>
      </g>
      <path d="M3.32 17.88C3.45333 17.88 3.58333 17.84 3.71 17.76C3.83667 17.68 3.93333 17.5667 4 17.42L4 17.42L9.62 5.3C9.67333 5.20667 9.7 5.1 9.7 4.98C9.7 4.78 9.62 4.61333 9.46 4.48C9.3 4.34667 9.12 4.28 8.92 4.28C8.6 4.28 8.36667 4.44 8.22 4.76L8.22 4.76L4.88 12.22L1.54 4.72C1.47333 4.57333 1.37667 4.46 1.25 4.38C1.12333 4.3 0.993333 4.26 0.86 4.26C0.646667 4.26 0.45 4.33333 0.27 4.48C0.09 4.62667 0 4.8 0 5C0 5.10667 0.0266667 5.20667 0.08 5.3L0.08 5.3L4.04 13.86L2.64 16.88C2.58667 16.9867 2.56 17.0933 2.56 17.2C2.56 17.4 2.63667 17.5633 2.79 17.69C2.94333 17.8167 3.12 17.88 3.32 17.88ZM15.4 14.34C16.32 14.34 17.1333 14.1333 17.84 13.72C18.5467 13.3067 19.09 12.7167 19.47 11.95C19.85 11.1833 20.04 10.2933 20.04 9.28C20.04 8.26667 19.85 7.37667 19.47 6.61C19.09 5.84333 18.5467 5.25333 17.84 4.84C17.1333 4.42667 16.32 4.22 15.4 4.22C14.48 4.22 13.67 4.42667 12.97 4.84C12.27 5.25333 11.73 5.84333 11.35 6.61C10.97 7.37667 10.78 8.26667 10.78 9.28C10.78 10.2933 10.97 11.1833 11.35 11.95C11.73 12.7167 12.27 13.3067 12.97 13.72C13.67 14.1333 14.48 14.34 15.4 14.34ZM15.4 13C14.44 13 13.7033 12.68 13.19 12.04C12.6767 11.4 12.42 10.48 12.42 9.28C12.42 8.09333 12.68 7.17667 13.2 6.53C13.72 5.88333 14.4533 5.56 15.4 5.56C16.3467 5.56 17.08 5.88333 17.6 6.53C18.12 7.17667 18.38 8.09333 18.38 9.28C18.38 10.4933 18.1233 11.4167 17.61 12.05C17.0967 12.6833 16.36 13 15.4 13ZM25.92 14.34C26.6133 14.34 27.2367 14.1867 27.79 13.88C28.3433 13.5733 28.7733 13.1267 29.08 12.54L29.08 12.54L29.08 13.54C29.08 13.7667 29.15 13.95 29.29 14.09C29.43 14.23 29.62 14.3 29.86 14.3C30.1133 14.3 30.31 14.2267 30.45 14.08C30.59 13.9333 30.66 13.7467 30.66 13.52L30.66 13.52L30.66 5.06C30.66 4.82 30.59 4.62667 30.45 4.48C30.31 4.33333 30.1133 4.26 29.86 4.26C29.6067 4.26 29.4067 4.33333 29.26 4.48C29.1133 4.62667 29.04 4.82 29.04 5.06L29.04 5.06L29.04 9.96C29.04 10.8667 28.78 11.5967 28.26 12.15C27.74 12.7033 27.0533 12.98 26.2 12.98C25.4533 12.98 24.9067 12.7767 24.56 12.37C24.2133 11.9633 24.04 11.3267 24.04 10.46L24.04 10.46L24.04 5.06C24.04 4.82 23.97 4.62667 23.83 4.48C23.69 4.33333 23.4933 4.26 23.24 4.26C22.9867 4.26 22.7867 4.33333 22.64 4.48C22.4933 4.62667 22.42 4.82 22.42 5.06L22.42 5.06L22.42 10.5C22.42 11.7667 22.7133 12.7233 23.3 13.37C23.8867 14.0167 24.76 14.34 25.92 14.34ZM34.5 14.3C34.74 14.3 34.9333 14.2333 35.08 14.1C35.2267 13.9667 35.3 13.7667 35.3 13.5L35.3 13.5L35.3 8.64C35.3 7.89333 35.5167 7.24333 35.95 6.69C36.3833 6.13667 37.0467 5.82 37.94 5.74L37.94 5.74L38.54 5.68C38.8333 5.65333 39.04 5.57667 39.16 5.45C39.28 5.32333 39.34 5.15333 39.34 4.94C39.34 4.44667 39.06 4.22 38.5 4.26L38.5 4.26L38.22 4.28C37.5533 4.33333 36.9633 4.51333 36.45 4.82C35.9367 5.12667 35.54 5.57333 35.26 6.16L35.26 6.16L35.26 5.04C35.26 4.8 35.1867 4.61 35.04 4.47C34.8933 4.33 34.7133 4.26 34.5 4.26C34.2733 4.26 34.08 4.33 33.92 4.47C33.76 4.61 33.68 4.80667 33.68 5.06L33.68 5.06L33.68 13.5C33.68 13.7533 33.7567 13.95 33.91 14.09C34.0633 14.23 34.26 14.3 34.5 14.3ZM41.56 14.3C41.7867 14.3 41.9767 14.23 42.13 14.09C42.2833 13.95 42.36 13.7533 42.36 13.5L42.36 13.5L42.36 0.8C42.36 0.546667 42.2833 0.35 42.13 0.21C41.9767 0.07 41.7867 0 41.56 0C41.32 0 41.1233 0.07 40.97 0.21C40.8167 0.35 40.74 0.546667 40.74 0.8L40.74 0.8L40.74 13.5C40.74 13.7533 40.8167 13.95 40.97 14.09C41.1233 14.23 41.32 14.3 41.56 14.3ZM49.42 14.34C50.34 14.34 51.1533 14.1333 51.86 13.72C52.5667 13.3067 53.11 12.7167 53.49 11.95C53.87 11.1833 54.06 10.2933 54.06 9.28C54.06 8.26667 53.87 7.37667 53.49 6.61C53.11 5.84333 52.5667 5.25333 51.86 4.84C51.1533 4.42667 50.34 4.22 49.42 4.22C48.5 4.22 47.69 4.42667 46.99 4.84C46.29 5.25333 45.75 5.84333 45.37 6.61C44.99 7.37667 44.8 8.26667 44.8 9.28C44.8 10.2933 44.99 11.1833 45.37 11.95C45.75 12.7167 46.29 13.3067 46.99 13.72C47.69 14.1333 48.5 14.34 49.42 14.34ZM49.42 13C48.46 13 47.7233 12.68 47.21 12.04C46.6967 11.4 46.44 10.48 46.44 9.28C46.44 8.09333 46.7 7.17667 47.22 6.53C47.74 5.88333 48.4733 5.56 49.42 5.56C50.3667 5.56 51.1 5.88333 51.62 6.53C52.14 7.17667 52.4 8.09333 52.4 9.28C52.4 10.4933 52.1433 11.4167 51.63 12.05C51.1167 12.6833 50.38 13 49.42 13ZM60.76 17.94C62.2267 17.94 63.3333 17.57 64.08 16.83C64.8267 16.09 65.2 14.9933 65.2 13.54L65.2 13.54L65.2 5.06C65.2 4.82 65.1267 4.62667 64.98 4.48C64.8333 4.33333 64.6333 4.26 64.38 4.26C64.1267 4.26 63.93 4.33333 63.79 4.48C63.65 4.62667 63.58 4.82 63.58 5.06L63.58 5.06L63.58 6.14C63.2867 5.52667 62.8533 5.05333 62.28 4.72C61.7067 4.38667 61.0333 4.22 60.26 4.22C59.4067 4.22 58.65 4.42 57.99 4.82C57.33 5.22 56.8167 5.78667 56.45 6.52C56.0833 7.25333 55.9 8.1 55.9 9.06C55.9 10.02 56.0833 10.8667 56.45 11.6C56.8167 12.3333 57.33 12.9 57.99 13.3C58.65 13.7 59.4067 13.9 60.26 13.9C61.0467 13.9 61.73 13.7333 62.31 13.4C62.89 13.0667 63.32 12.5867 63.6 11.96L63.6 11.96L63.6 13.68C63.6 14.64 63.36 15.37 62.88 15.87C62.4 16.37 61.6867 16.62 60.74 16.62C60.1133 16.62 59.5733 16.5467 59.12 16.4C58.6667 16.2533 58.2067 16.06 57.74 15.82C57.3933 15.6333 57.1533 15.54 57.02 15.54C56.86 15.54 56.73 15.6 56.63 15.72C56.53 15.84 56.48 15.9933 56.48 16.18C56.48 16.5267 56.72 16.8333 57.2 17.1C58.1467 17.66 59.3333 17.94 60.76 17.94ZM60.58 12.56C59.6333 12.56 58.89 12.25 58.35 11.63C57.81 11.01 57.54 10.1533 57.54 9.06C57.54 7.98 57.81 7.13 58.35 6.51C58.89 5.89 59.6333 5.58 60.58 5.58C61.5267 5.58 62.2633 5.89 62.79 6.51C63.3167 7.13 63.58 7.98 63.58 9.06C63.58 10.1533 63.3133 11.01 62.78 11.63C62.2467 12.25 61.5133 12.56 60.58 12.56ZM72.24 14.34C73.16 14.34 73.9733 14.1333 74.68 13.72C75.3867 13.3067 75.93 12.7167 76.31 11.95C76.69 11.1833 76.88 10.2933 76.88 9.28C76.88 8.26667 76.69 7.37667 76.31 6.61C75.93 5.84333 75.3867 5.25333 74.68 4.84C73.9733 4.42667 73.16 4.22 72.24 4.22C71.32 4.22 70.51 4.42667 69.81 4.84C69.11 5.25333 68.57 5.84333 68.19 6.61C67.81 7.37667 67.62 8.26667 67.62 9.28C67.62 10.2933 67.81 11.1833 68.19 11.95C68.57 12.7167 69.11 13.3067 69.81 13.72C70.51 14.1333 71.32 14.34 72.24 14.34ZM72.24 13C71.28 13 70.5433 12.68 70.03 12.04C69.5167 11.4 69.26 10.48 69.26 9.28C69.26 8.09333 69.52 7.17667 70.04 6.53C70.56 5.88333 71.2933 5.56 72.24 5.56C73.1867 5.56 73.92 5.88333 74.44 6.53C74.96 7.17667 75.22 8.09333 75.22 9.28C75.22 10.4933 74.9633 11.4167 74.45 12.05C73.9367 12.6833 73.2 13 72.24 13Z" transform="translate(40 7)" id="yourlogo" fill="#171C2D" stroke="none" />
    </g>
  </g>
</svg>